<?xml version="1.0"?>
<svg xmlns:rdf="http://www.w3.org/1999/02/22-rdf-syntax-ns#" xmlns="http://www.w3.org/2000/svg" xmlns:cc="http://web.resource.org/cc/" xmlns:xlink="http://www.w3.org/1999/xlink" xmlns:dc="http://purl.org/dc/elements/1.1/" xmlns:svg="http://www.w3.org/2000/svg" id="Layer_1" y="0px" xml:space="preserve" viewBox="0 0 640.203 640.203" version="1.1" enable-background="new 0 0 640.203 640.203" x="0px">
<radialGradient id="SVGID_1_" gradientUnits="userSpaceOnUse" cy="321.43" cx="318.09" r="446">
	<stop stop-color="#57B6DD" offset=".022"/>
	<stop stop-color="#E5F4F6" offset=".1703"/>
	<stop stop-color="#AEDEE4" offset=".2912"/>
	<stop stop-color="#E2F3F5" offset=".456"/>
	<stop stop-color="#57B6DD" offset=".6484"/>
	<stop stop-color="#AEDEE4" offset=".9505"/>
</radialGradient>
<path d="m320.1 187.48l-17.765 57.431 17.765 57.43 17.764-57.43-17.76-57.43zm28.63-49.59l-24.992-14.43-0.34-11.37 3.026-8.51 17.05 8.104-8.104-17.05 17.785-6.324-17.785-6.324 8.104-17.05-17.05 8.104-4.552-12.802-1.78-60.234-1.773 60.243-4.551 12.797-17.05-8.104 8.104 17.049-17.785 6.325 17.785 6.324-8.104 17.05 17.049-8.104 3.026 8.508-0.335 11.376-24.993 14.429v33.056l28.627 16.527 28.625-16.527v-33.07zm-57.25 364.42l24.992 14.429 0.335 11.377-3.025 8.507-17.05-8.104 8.104 17.049-17.785 6.324 17.785 6.324-8.104 17.05 17.05-8.104 4.551 12.799 1.773 60.242 1.773-60.24 4.552-12.801 17.05 8.104-8.104-17.049 17.785-6.325-17.785-6.324 8.104-17.049-17.049 8.104-3.026-8.51 0.334-11.373 24.993-14.43v-33.057l-28.626-16.527-28.626 16.527v33.05zm-104-182.21l57.431 17.765 57.43-17.765-57.43-17.764-57.43 17.76zm-49.59-28.62l-14.429 24.992-11.376 0.335-8.508-3.025 8.104-17.05-17.049 8.104-6.325-17.785-6.324 17.785-17.049-8.104 8.104 17.05-12.8 4.552-60.227 1.78 60.243 1.772 12.797 4.552-8.104 17.05 17.049-8.104 6.325 17.785 6.325-17.785 17.049 8.104-8.104-17.049 8.508-3.025 11.376 0.335 14.429 24.992h33.056l16.527-28.627-16.527-28.626h-33.07zm199.98 28.62l57.43 17.764 57.43-17.764-57.43-17.765-57.43 17.76zm302.33 0l-60.244-1.772-12.797-4.552 8.104-17.05-17.049 8.104-6.325-17.785-6.324 17.785-17.049-8.104 8.104 17.049-8.507 3.025-11.377-0.335-14.429-24.992h-33.057l-16.527 28.627 16.527 28.626h33.057l14.43-24.992 11.375-0.335 8.508 3.025-8.104 17.05 17.049-8.104 6.324 17.785 6.324-17.785 17.05 8.104-8.104-17.05 12.801-4.552 60.25-1.78zm-413.88-93.78l28.048 53.171 53.17 28.048-28.048-53.17-53.17-28.05zm-14.82-55.3l-27.875 7.47-8.28-7.807-3.877-8.156 17.787-6.325-17.787-6.325 8.104-17.048-17.048 8.104-6.325-17.786-6.326 17.786-12.271-5.833-43.824-41.344 41.344 43.851 5.831 12.269-17.786 6.326 17.786 6.324-8.104 17.049 17.048-8.104 6.325 17.786 6.325-17.786 8.156 3.877 7.807 8.281-7.47 27.875 23.374 23.374 31.929-8.556 8.555-31.929-23.38-23.38zm202.38 242.86l-28.047-53.171-53.171-28.048 28.048 53.17 53.17 28.05zm14.82 55.3l27.876-7.47 8.28 7.808 3.877 8.154-17.786 6.326 17.786 6.324-8.104 17.049 17.048-8.104 6.325 17.787 6.326-17.786 12.269 5.832 43.852 41.344-41.344-43.851-5.832-12.271 17.786-6.325-17.786-6.325 8.104-17.048-17.048 8.104-6.325-17.785-6.325 17.785-8.158-3.878-7.805-8.278 7.47-27.876-23.375-23.375-31.929 8.557-8.555 31.928 23.34 23.39zm-202.38-55.3l53.171-28.049 28.047-53.171-53.17 28.049-28.05 53.17zm-55.3 14.82l7.469 27.876-7.807 8.28-8.155 3.877-6.326-17.787-6.325 17.787-17.048-8.104 8.104 17.048-17.786 6.325 17.786 6.326-5.833 12.27-41.342 43.851 43.852-41.345 12.268-5.831 6.326 17.786 6.324-17.786 17.048 8.104-8.104-17.048 17.786-6.326-17.786-6.324 3.877-8.156 8.279-7.807 27.876 7.47 23.374-23.374-8.556-31.929-31.928-8.556-23.36 23.37zm242.86-202.38l-53.17 28.047-28.048 53.171 53.17-28.049 28.05-53.17zm55.3-14.82l-7.469-27.875 7.808-8.281 8.154-3.877 6.326 17.786 6.324-17.786 17.048 8.104-8.104-17.048 17.786-6.325-17.786-6.326 5.833-12.27 41.343-43.851-43.84 41.371-12.268 5.831-6.326-17.786-6.324 17.786-17.049-8.104 8.104 17.048-17.785 6.325 17.785 6.325-3.876 8.155-8.281 7.808-27.875-7.469-23.375 23.374 8.556 31.93 31.929 8.555 23.39-23.38zm-84.64 83.78l69.812-18.993 19.63-16.289 38.29-15.104 20.354-12.219-23.032 5.754-37.49 16.28-25.699 2.388-60.632 35.1-52.854 22.952-0.255-0.256v-7.358h-6.491l21.763-50.115 35.938-62.802 2.362-25.398 16.396-37.756 5.753-23.032-12.218 20.354-14.998 38.02-16.483 19.862-18.051 67.687-20.978 53.179h-0.351l-5.203-5.203-4.842 4.842-19.981-50.655-18.993-69.812-16.289-19.629-15.104-38.291-12.218-20.354 5.753 23.032 16.28 37.49 2.389 25.701 35.1 60.631 22.689 52.25h-7.346v7.354l-50.129-21.768-62.793-35.934-25.398-2.362-37.756-16.395-23.031-5.753 20.354 12.218 38.021 14.998 19.862 16.483 67.695 18.054 52.81 20.831-4.836 4.836 5.203 5.203v0.354l-51.019 20.125-69.815 18.994-19.628 16.289-38.292 15.104-20.354 12.217 23.032-5.752 37.49-16.28 25.701-2.39 60.628-35.099 52.257-22.692v6.487h7.357l0.254 0.255-22.03 50.733-35.935 62.795-2.362 25.397-16.39 37.76-5.754 23.031 12.219-20.354 14.998-38.021 16.483-19.862 18.053-67.689 21.077-53.435 4.596 4.597-17.763 57.43 17.764 57.43 17.765-57.43-17.764-57.43 5.203-5.204h0.007l20.466 51.884 18.992 69.811 16.289 19.63 15.104 38.29 12.219 20.354-5.754-23.032-16.279-37.489-2.389-25.7-35.102-60.634-23.064-53.113h6.868v-6.858l50.983 22.139 62.793 35.935 25.398 2.362 37.756 16.396 23.032 5.753-20.354-12.218-38.02-14.997-19.862-16.484-67.694-18.054-54.032-21.314v-0.017l5.202-5.202-4.594-4.594 51.23-20.26z" fill="url(#SVGID_1_)"/>
<metadata><rdf:RDF><cc:Work><dc:format>image/svg+xml</dc:format><dc:type rdf:resource="http://purl.org/dc/dcmitype/StillImage"/><cc:license rdf:resource="http://creativecommons.org/licenses/publicdomain/"/><dc:publisher><cc:Agent rdf:about="http://openclipart.org/"><dc:title>Openclipart</dc:title></cc:Agent></dc:publisher><dc:title>snowflake</dc:title><dc:date>2010-11-28T22:16:26</dc:date><dc:description>A snowflake I illustrated and filled with a gradient.</dc:description><dc:source>http://openclipart.org/detail/98557/snowflake-by-jgm104</dc:source><dc:creator><cc:Agent><dc:title>jgm104</dc:title></cc:Agent></dc:creator><dc:subject><rdf:Bag><rdf:li>Snowflake</rdf:li><rdf:li>blue</rdf:li><rdf:li>christmas</rdf:li><rdf:li>clip art</rdf:li><rdf:li>clipart</rdf:li><rdf:li>crystal</rdf:li><rdf:li>flake</rdf:li><rdf:li>holiday</rdf:li><rdf:li>snoflake</rdf:li><rdf:li>snow</rdf:li><rdf:li>winter</rdf:li></rdf:Bag></dc:subject></cc:Work><cc:License rdf:about="http://creativecommons.org/licenses/publicdomain/"><cc:permits rdf:resource="http://creativecommons.org/ns#Reproduction"/><cc:permits rdf:resource="http://creativecommons.org/ns#Distribution"/><cc:permits rdf:resource="http://creativecommons.org/ns#DerivativeWorks"/></cc:License></rdf:RDF></metadata></svg>
